<svg width="36" height="36" viewBox="0 0 36 36" fill="none" xmlns="http://www.w3.org/2000/svg">
<g filter="url(#filter0_d_1_850)">
<circle cx="18" cy="17" r="12" fill="#F4F4F4"/>
</g>
<path opacity="0.501674" fill-rule="evenodd" clip-rule="evenodd" d="M19.5789 13.2105C19.5789 11.9953 20.5742 11 21.7895 11C23.0047 11 24 11.9953 24 13.2105C24 14.4258 23.0047 15.4211 21.7895 15.4211C21.1006 15.4211 20.5076 15.0819 20.1014 14.5835L16.315 16.4776C16.3252 16.5184 16.3366 16.5588 16.348 16.5991L16.348 16.5991L16.348 16.5991L16.348 16.5991C16.3846 16.7291 16.4211 16.8589 16.4211 17C16.4211 17.1411 16.3846 17.2709 16.348 17.4009L16.348 17.4009L16.348 17.4009L16.348 17.4009C16.3366 17.4412 16.3252 17.4816 16.315 17.5224L20.1014 19.4165C20.5076 18.9181 21.1006 18.5789 21.7895 18.5789C23.0047 18.5789 24 19.5742 24 20.7895C24 22.0047 23.0047 23 21.7895 23C20.5742 23 19.5789 22.0047 19.5789 20.7895C19.5789 20.6483 19.6154 20.5186 19.652 20.3886L19.652 20.3886C19.6634 20.3482 19.6748 20.3078 19.685 20.2671L15.8986 18.3729C15.4924 18.8714 14.8994 19.2105 14.2105 19.2105C12.9953 19.2105 12 18.2152 12 17C12 15.7848 12.9953 14.7895 14.2105 14.7895C14.8994 14.7895 15.4924 15.1286 15.8986 15.6271L19.685 13.7329C19.6748 13.6922 19.6634 13.6518 19.652 13.6114L19.652 13.6114L19.652 13.6114L19.652 13.6114C19.6154 13.4814 19.5789 13.3517 19.5789 13.2105ZM23.0526 13.2105C23.0526 12.5073 22.4927 11.9474 21.7895 11.9474C21.0862 11.9474 20.5263 12.5073 20.5263 13.2105C20.5263 13.9138 21.0862 14.4737 21.7895 14.4737C22.4927 14.4737 23.0526 13.9138 23.0526 13.2105ZM14.2105 15.7368C14.9138 15.7368 15.4737 16.2968 15.4737 17C15.4737 17.7032 14.9138 18.2632 14.2105 18.2632C13.5073 18.2632 12.9474 17.7032 12.9474 17C12.9474 16.2968 13.5073 15.7368 14.2105 15.7368ZM23.0526 20.7895C23.0526 20.0862 22.4927 19.5263 21.7895 19.5263C21.0862 19.5263 20.5263 20.0862 20.5263 20.7895C20.5263 21.4927 21.0862 22.0526 21.7895 22.0526C22.4927 22.0526 23.0526 21.4927 23.0526 20.7895Z" fill="#222222"/>
<defs>
<filter id="filter0_d_1_850" x="0" y="0" width="36" height="36" filterUnits="userSpaceOnUse" color-interpolation-filters="sRGB">
<feFlood flood-opacity="0" result="BackgroundImageFix"/>
<feColorMatrix in="SourceAlpha" type="matrix" values="0 0 0 0 0 0 0 0 0 0 0 0 0 0 0 0 0 0 127 0" result="hardAlpha"/>
<feOffset dy="1"/>
<feGaussianBlur stdDeviation="3"/>
<feColorMatrix type="matrix" values="0 0 0 0 0.133333 0 0 0 0 0.133333 0 0 0 0 0.133333 0 0 0 0.163762 0"/>
<feBlend mode="normal" in2="BackgroundImageFix" result="effect1_dropShadow_1_850"/>
<feBlend mode="normal" in="SourceGraphic" in2="effect1_dropShadow_1_850" result="shape"/>
</filter>
</defs>
</svg>
